<?xml version="1.0" encoding="UTF-8" standalone="no"?>
<svg
   version="1.0"
   width="1140px"
   height="945px"
   viewBox="0 0 1140 945"
   preserveAspectRatio="xMidYMid meet"
   id="svg4"
   sodipodi:docname="TechDaddy 1.svg"
   inkscape:version="1.4 (86a8ad7, 2024-10-11)"
   xmlns:inkscape="http://www.inkscape.org/namespaces/inkscape"
   xmlns:sodipodi="http://sodipodi.sourceforge.net/DTD/sodipodi-0.dtd"
   xmlns="http://www.w3.org/2000/svg"
   xmlns:svg="http://www.w3.org/2000/svg">
  <defs
     id="defs4" />
  <sodipodi:namedview
     id="namedview4"
     pagecolor="#ffffff"
     bordercolor="#000000"
     borderopacity="0.25"
     inkscape:showpageshadow="2"
     inkscape:pageopacity="0.0"
     inkscape:pagecheckerboard="true"
     inkscape:deskcolor="#d1d1d1"
     inkscape:zoom="0.93650794"
     inkscape:cx="569.66949"
     inkscape:cy="473.56779"
     inkscape:window-width="1920"
     inkscape:window-height="1129"
     inkscape:window-x="1912"
     inkscape:window-y="-8"
     inkscape:window-maximized="1"
     inkscape:current-layer="svg4"
     showborder="false" />
  <g
     fill="#000000"
     id="g2">
    <path
       d="m 574.1,876.7 c -9.5,-1 -28.3,-4.8 -39.8,-7.9 -40,-11.1 -74,-29.2 -98.2,-52.6 -6.1,-5.9 -5.9,-6.2 -7.1,8.7 l -0.7,8.9 h -3.2 c -6.9,0 -36.7,-26.5 -51.1,-45.3 -8.3,-10.9 -17.6,-25.2 -23,-35.2 -2.3,-4.5 -4.5,-7.7 -4.7,-7.2 -0.1,0.5 1.1,9.5 2.8,20 1.6,10.5 3.1,20.7 3.1,22.6 0,3.4 -0.2,3.5 -3.8,3.5 -3.7,0.1 -4.8,-0.8 -19,-15.5 -37.6,-38.6 -60.8,-73.4 -77.5,-115.6 -7.4,-18.9 -11.3,-32.8 -19.2,-68.9 -9.6,-43.5 -13.5,-59.4 -18.1,-72.8 l -4.1,-11.7 -0.3,-109.4 c -0.1,-76.9 -0.5,-111.4 -1.3,-116 -0.6,-3.7 -1.5,-9.3 -1.8,-12.5 l -0.7,-5.9 3.9,0.3 c 3.6,0.3 4.6,1.1 11,9 9.7,11.9 22.3,30.9 27.8,42 4.6,9.1 5,10.4 11.7,41.9 3,13.5 11.2,39 17.4,53.4 5.7,13.5 11.7,24.3 28.5,51.6 23.5,38.3 32.5,59.3 38.8,90.8 l 2.3,11.6 2.2,-6.1 c 1.2,-3.4 3.9,-13.3 5.8,-22.2 4.5,-20.6 7.8,-31.5 12.8,-42.1 6.8,-14.7 11.7,-19.1 23.5,-21.5 8.2,-1.6 22.6,-9 62.5,-31.9 51.1,-29.3 74.1,-40.4 83.6,-40.4 3.5,0 8.1,1.5 17.6,5.5 21.6,9.3 27.1,9.2 44.3,-0.6 7.2,-4.2 10.4,-5.3 14.9,-5.7 7,-0.5 10,0.7 57.9,23.2 51.1,24 64.9,30.1 77.2,34.2 13.8,4.7 13.9,4.7 16.9,9.9 4,6.8 6.4,17.5 10.8,48.2 4.2,29.2 6.9,40.7 12,50.7 l 2.6,5.1 0.8,-8.7 c 1.1,-12.5 4.5,-28.5 8.4,-40.4 4.2,-12.4 16.3,-36.9 28.5,-57.8 17.6,-29.8 19.2,-32.7 25.4,-45.8 7,-14.7 12.6,-29.7 18.9,-51.7 2.2,-7.9 5.9,-18.1 7.9,-22.6 4.6,-9.7 15.7,-26.5 32.2,-48.9 6.5,-9 12.2,-16.9 12.4,-17.5 0.3,-0.7 2.1,-1.3 4.2,-1.3 h 3.6 l -0.7,10.5 c -0.4,5.7 -1.1,15 -1.6,20.6 -0.5,5.6 -1.4,28.3 -2.1,50.4 -1.3,41.2 -0.6,75.8 2.2,120.6 l 1.2,18.3 -5.2,16.1 c -7.7,23.6 -12.6,43.2 -19.5,78.6 -8.8,44.4 -12.9,60.3 -20,75.8 -2.5,5.7 -3,6.1 -6.1,6.1 h -3.4 l -0.1,-12.9 c 0,-12.2 -1.6,-27.2 -1.9,-18.9 -0.2,6.5 -5.3,31.7 -8.3,41.5 -1.7,5.6 -4.9,13.7 -7,18 -14.9,29.9 -51.7,69 -103,109.5 -10.1,8 -12.4,9.4 -15.6,9.4 h -3.9 l 0.6,-5.8 c 0.3,-3.3 0.9,-8.4 1.3,-11.5 l 0.6,-5.6 -6.1,8.7 c -7.7,10.9 -16.3,20.8 -22.3,25.8 -18,14.9 -72.3,37.4 -107.2,44.5 -9.4,1.9 -22.4,2.4 -32.6,1.3 z M 505.7,612.9 c 5,-2.5 13.3,-11.4 23.1,-24.3 4.4,-5.8 9.1,-11.3 10.4,-12.1 1.8,-1.2 4.1,-1.4 10.2,-0.9 24.1,1.8 32.4,1.8 46.8,0.1 12.6,-1.6 15,-1.6 17.2,-0.4 1.4,0.7 7.8,7.8 14.1,15.7 12,15.1 16.8,19.8 19.7,19.8 2.3,0 31.1,-9.8 44.6,-15.2 9.1,-3.6 40.1,-17.2 40.7,-17.8 0.3,-0.3 -2.3,-39.9 -3.4,-50.6 -0.7,-7.8 -3.7,-13.7 -8.1,-16.4 -1.8,-1 -15.8,-4.6 -31,-7.9 -45.2,-9.7 -79.6,-18.7 -94.7,-24.7 -4.7,-1.9 -11,-4.1 -13.9,-4.8 -6.4,-1.5 -9.5,-0.8 -26.8,5.6 -12.7,4.8 -34.1,11.2 -67.1,20.4 -50.2,13.8 -61.8,17.2 -65.4,19 -5,2.5 -9,8.9 -12.8,20.6 -2.7,8 -9.3,33.3 -9.3,35.4 0,1.1 23.9,13 40.8,20.2 16.2,6.9 36.5,14.1 50.3,17.8 11.2,3 10,3 14.6,0.6 z"
       id="path1"
       sodipodi:nodetypes="cccccsccccscccccccccccccccccccccccscccccccccccccccccsccsccccccsccccccsccccccccccccccccscscccccccscscccc" />
    <path
       d="M719.1 295.2 c-40.7 -2.6 -69 -14.6 -88.1 -37 -10.3 -12 -10.5 -12.6 -35.2 -75.9 -10.8 -27.5 -23.6 -36.1 -36.8 -24.8 -5.5 4.8 -12.1 18.3 -23.5 48.2 -14.5 38 -17.7 44.2 -29.4 56.4 -16.5 17.1 -38.1 27.2 -67.8 31.7 -13.7 2 -55.5 2 -73 0 -38.9 -4.5 -62.4 -14.8 -76.1 -32.9 -11.3 -15 -20.9 -40.2 -31.7 -83.2 -3.4 -13.4 -6.8 -26.1 -7.8 -28 -1.2 -2.5 -3.5 -4.5 -7.5 -6.6 -11.8 -6.3 -13 -9.2 -13 -31.2 0 -17.1 1 -20 8.6 -23.3 9.8 -4.3 47.9 -10.1 79.8 -12.2 24.5 -1.5 91.7 -0.6 112.7 1.5 34.5 3.6 57.1 7.7 84.2 15.4 22.5 6.3 35.1 9.2 47.9 10.6 14.5 1.6 28.2 -0.6 64.5 -10.6 30.5 -8.4 54.5 -12.6 90.9 -16 23.6 -2.1 102.9 -1.8 124.2 0.5 30.2 3.3 56.7 8 63.1 11.4 6 3.1 6.3 4.7 5.9 25.2 -0.4 22 -0.4 22.2 -10.9 27.7 -9.1 4.8 -9.4 5.5 -16.8 35.6 -15.3 61.6 -27.7 85.8 -51 100.1 -12.2 7.5 -35.2 13.8 -58.5 16.4 -14.1 1.5 -40.4 2 -54.5 1.1z"
       id="path2" />
  </g>
  <g
     fill="#ffffff"
     id="g4" />
</svg>
